<?xml version="1.0" standalone="no"?>
<!DOCTYPE svg PUBLIC "-//W3C//DTD SVG 20010904//EN"
 "http://www.w3.org/TR/2001/REC-SVG-20010904/DTD/svg10.dtd">
<svg version="1.0" xmlns="http://www.w3.org/2000/svg"
 width="500.000000pt" height="500.000000pt" viewBox="0 0 500.000000 500.000000"
 preserveAspectRatio="xMidYMid meet">

<g transform="translate(0.000000,500.000000) scale(0.100000,-0.100000)"
fill="#000000" stroke="none">
<path d="M2335 3934 c-106 -12 -269 -46 -348 -74 -380 -132 -702 -435 -849
-800 -189 -467 -121 -994 178 -1396 52 -69 205 -227 250 -258 17 -11 58 -39
90 -62 202 -140 461 -228 707 -241 l117 -6 0 171 0 172 -45 0 c-69 0 -232 27
-305 50 -84 27 -239 103 -286 141 -20 16 -40 29 -44 29 -14 0 -166 155 -206
210 -77 106 -113 175 -175 340 -19 51 -39 208 -39 310 0 132 20 252 59 358
124 340 397 590 747 683 107 29 134 32 264 33 127 0 159 -4 255 -28 188 -48
351 -136 484 -262 66 -62 161 -175 161 -191 0 -3 6 -14 14 -22 49 -54 130
-265 155 -405 17 -91 20 -86 -63 -86 l-75 0 73 -122 c39 -68 107 -185 150
-261 71 -124 80 -136 92 -120 7 10 14 21 14 26 0 4 12 26 26 49 14 23 36 60
49 82 12 23 39 70 60 106 50 87 66 115 104 182 l32 57 -57 3 -58 3 -13 105
c-63 516 -438 974 -939 1149 -161 55 -432 91 -579 75z"/>
<path d="M2438 3399 l-68 -89 0 -358 c0 -402 4 -381 -80 -422 -24 -13 -60 -33
-80 -45 -19 -12 -101 -59 -183 -106 l-147 -83 -31 -99 c-17 -54 -28 -101 -26
-104 3 -2 48 -11 101 -19 l95 -14 83 49 c46 27 119 69 163 93 44 25 128 73
187 106 60 34 112 62 116 62 11 0 57 50 71 77 6 12 11 41 10 65 -1 43 -1 43
-10 11 -34 -118 -220 -108 -236 13 -17 131 128 179 215 72 l32 -40 0 368 c0
368 0 369 -23 396 -20 24 -78 98 -109 140 -12 14 -21 6 -80 -73z"/>
</g>
</svg>
